<svg width="24" height="24" viewBox="0 0 24 24" fill="none" xmlns="http://www.w3.org/2000/svg">
<g id="mdi:calendar">
<g id="Vector">
<mask id="path-1-inside-1_708_3129" fill="white">
<path d="M19 19H5V8H19M16 1V3H8V1H6V3H5C3.89 3 3 3.89 3 5V19C3 19.5304 3.21071 20.0391 3.58579 20.4142C3.96086 20.7893 4.46957 21 5 21H19C19.5304 21 20.0391 20.7893 20.4142 20.4142C20.7893 20.0391 21 19.5304 21 19V5C21 4.46957 20.7893 3.96086 20.4142 3.58579C20.0391 3.21071 19.5304 3 19 3H18V1M17 12H12V17H17V12Z"/>
</mask>
<path d="M19 19H5V8H19M16 1V3H8V1H6V3H5C3.89 3 3 3.89 3 5V19C3 19.5304 3.21071 20.0391 3.58579 20.4142C3.96086 20.7893 4.46957 21 5 21H19C19.5304 21 20.0391 20.7893 20.4142 20.4142C20.7893 20.0391 21 19.5304 21 19V5C21 4.46957 20.7893 3.96086 20.4142 3.58579C20.0391 3.21071 19.5304 3 19 3H18V1M17 12H12V17H17V12Z" fill="black"/>
<path d="M5 19H4V20H5V19ZM5 8V7H4V8H5ZM16 3V4H17V3H16ZM8 3H7V4H8V3ZM8 1H9V0H8V1ZM6 1V0H5V1H6ZM6 3V4H7V3H6ZM3 19H2H3ZM19 3V2V3ZM18 3H17V4H18V3ZM17 12H18V11H17V12ZM12 12V11H11V12H12ZM12 17H11V18H12V17ZM17 17V18H18V17H17ZM19 18H5V20H19V18ZM6 19V8H4V19H6ZM5 9H19V7H5V9ZM15 1V3H17V1H15ZM16 2H8V4H16V2ZM9 3V1H7V3H9ZM8 0H6V2H8V0ZM5 1V3H7V1H5ZM6 2H5V4H6V2ZM5 2C3.33772 2 2 3.33772 2 5H4C4 4.44228 4.44228 4 5 4V2ZM2 5V19H4V5H2ZM2 19C2 19.7957 2.31607 20.5587 2.87868 21.1213L4.29289 19.7071C4.10536 19.5196 4 19.2652 4 19H2ZM2.87868 21.1213C3.44129 21.6839 4.20435 22 5 22V20C4.73478 20 4.48043 19.8946 4.29289 19.7071L2.87868 21.1213ZM5 22H19V20H5V22ZM19 22C19.7957 22 20.5587 21.6839 21.1213 21.1213L19.7071 19.7071C19.5196 19.8946 19.2652 20 19 20V22ZM21.1213 21.1213C21.6839 20.5587 22 19.7957 22 19H20C20 19.2652 19.8946 19.5196 19.7071 19.7071L21.1213 21.1213ZM22 19V5H20V19H22ZM22 5C22 4.20435 21.6839 3.44129 21.1213 2.87868L19.7071 4.29289C19.8946 4.48043 20 4.73478 20 5H22ZM21.1213 2.87868C20.5587 2.31607 19.7957 2 19 2V4C19.2652 4 19.5196 4.10536 19.7071 4.29289L21.1213 2.87868ZM19 2H18V4H19V2ZM19 3V1H17V3H19ZM17 11H12V13H17V11ZM11 12V17H13V12H11ZM12 18H17V16H12V18ZM18 17V12H16V17H18Z" fill="black" mask="url(#path-1-inside-1_708_3129)"/>
</g>
</g>
</svg>
