<svg width="23" height="23" viewBox="0 0 23 23" fill="none" xmlns="http://www.w3.org/2000/svg">
<g id="Group">
<path id="Vector" d="M14.8853 1.86456H8.1145C4.66272 1.86456 1.8645 4.66278 1.8645 8.11456V14.8854C1.8645 18.3372 4.66272 21.1354 8.1145 21.1354H14.8853C18.3371 21.1354 21.1353 18.3372 21.1353 14.8854V8.11456C21.1353 4.66278 18.3371 1.86456 14.8853 1.86456Z" stroke="white" stroke-width="1.875"/>
<path id="Vector_2" d="M6.2915 14.625L8.84359 11.2292C8.99987 11.02 9.22898 10.8772 9.48555 10.829C9.74213 10.7808 10.0075 10.8307 10.229 10.9687L12.7186 12.5417C12.9486 12.6882 13.227 12.7386 13.4938 12.6821C13.7607 12.6256 13.9947 12.4667 14.1457 12.2396L16.7082 8.375" stroke="white" stroke-width="1.875" stroke-linecap="round" stroke-linejoin="round"/>
</g>
</svg>
