<svg width="25" height="25" viewBox="0 0 25 25" fill="none" xmlns="http://www.w3.org/2000/svg">
<g id="mage:dashboard-chart">
<g id="Group">
<path id="Vector" d="M15.8854 2.86475H9.11459C5.66281 2.86475 2.86459 5.66297 2.86459 9.11475V15.8856C2.86459 19.3374 5.66281 22.1356 9.11459 22.1356H15.8854C19.3372 22.1356 22.1354 19.3374 22.1354 15.8856V9.11475C22.1354 5.66297 19.3372 2.86475 15.8854 2.86475Z" stroke="black" stroke-width="1.875"/>
<path id="Vector_2" d="M7.29169 15.625L9.84377 12.2292C10.0001 12.02 10.2292 11.8772 10.4857 11.829C10.7423 11.7808 11.0076 11.8307 11.2292 11.9687L13.7188 13.5417C13.9488 13.6882 14.2272 13.7386 14.494 13.6821C14.7609 13.6256 14.9949 13.4667 15.1459 13.2396L17.7084 9.375" stroke="black" stroke-width="1.875" stroke-linecap="round" stroke-linejoin="round"/>
</g>
</g>
</svg>
