<svg width="51" height="50" viewBox="0 0 51 50" fill="none" xmlns="http://www.w3.org/2000/svg">
<g id="party-horn 1" clip-path="url(#clip0_448_2669)">
<path id="Vector" d="M35.8101 34.7958C36.1706 32.9521 35.5935 31.0583 34.2664 29.7312L20.7685 16.2333C19.4414 14.9042 17.5456 14.3292 15.706 14.6896C13.8643 15.0521 12.3289 16.2979 11.5997 18.0312L0.874728 43.5021C0.133061 45.2625 0.526811 47.2729 1.87681 48.6229C2.77473 49.5208 3.96431 49.9958 5.17681 49.9958C5.78931 49.9958 6.40806 49.8729 6.99973 49.625L32.4726 38.9021C34.2039 38.1729 35.4518 36.6375 35.8122 34.7958H35.8101ZM5.38098 45.7833C5.17473 45.8729 4.98514 45.8354 4.82264 45.675C4.66014 45.5146 4.62473 45.325 4.71431 45.1146L11.9476 27.9333L22.5643 38.5479L5.38098 45.7833ZM31.7226 33.9937C31.6768 34.2229 31.5039 34.7875 30.8539 35.0604L26.7101 36.8042L13.6935 23.7896L15.4393 19.6437C15.7122 18.9958 16.2768 18.8208 16.506 18.7771C16.5747 18.7625 16.6747 18.75 16.7935 18.75C17.0768 18.75 17.4726 18.8271 17.8226 19.1771L31.3206 32.675C31.8185 33.1729 31.7664 33.7625 31.7226 33.9937ZM29.0914 0.785417C29.8101 -0.108333 31.1039 -0.25625 31.9997 0.447917C32.1726 0.585417 36.2706 3.8875 35.9122 9.50833C35.7726 11.7104 34.9289 13.8396 33.4081 15.8437C32.9997 16.3833 32.3768 16.6688 31.7476 16.6688C31.3101 16.6688 30.8664 16.5312 30.4893 16.2458C29.5726 15.55 29.3935 14.2437 30.0893 13.3271C31.106 11.9875 31.6643 10.6146 31.7518 9.24583C31.9685 5.84792 29.506 3.79792 29.4018 3.7125C28.5164 2.9875 28.3726 1.67917 29.0893 0.789583L29.0914 0.785417ZM49.6185 28.7854C49.2539 29.0417 48.8351 29.1667 48.4206 29.1667C47.7726 29.1667 47.1372 28.8667 46.731 28.3062C46.6685 28.225 45.7726 27.0833 44.2518 27.0833C43.5372 27.0833 42.9039 27.2875 42.3706 27.6896C41.4518 28.3854 40.1456 28.2 39.4518 27.2833C38.7581 26.3667 38.9414 25.0583 39.8601 24.3667C41.1164 23.4187 42.6351 22.9188 44.2518 22.9188C47.2351 22.9188 49.3435 24.7833 50.1206 25.8854C50.7831 26.825 50.5581 28.125 49.6185 28.7896V28.7854ZM44.2518 3.125C44.2518 1.4 45.6518 0 47.3768 0C49.1018 0 50.5018 1.4 50.5018 3.125C50.5018 4.85 49.1018 6.25 47.3768 6.25C45.6518 6.25 44.2518 4.85 44.2518 3.125ZM40.0851 13.5417C40.0851 11.8167 41.4851 10.4167 43.2101 10.4167C44.9351 10.4167 46.3351 11.8167 46.3351 13.5417C46.3351 15.2667 44.9351 16.6667 43.2101 16.6667C41.4851 16.6667 40.0851 15.2667 40.0851 13.5417ZM17.1664 5.20833C17.1664 3.48333 18.5664 2.08333 20.2914 2.08333C22.0164 2.08333 23.4164 3.48333 23.4164 5.20833C23.4164 6.93333 22.0164 8.33333 20.2914 8.33333C18.5664 8.33333 17.1664 6.93333 17.1664 5.20833ZM48.4164 38.5417C48.4164 40.2667 47.0164 41.6667 45.2914 41.6667C43.5664 41.6667 42.1664 40.2667 42.1664 38.5417C42.1664 36.8167 43.5664 35.4167 45.2914 35.4167C47.0164 35.4167 48.4164 36.8167 48.4164 38.5417ZM2.58306 7.29167C2.58306 5.56667 3.98306 4.16667 5.70806 4.16667C7.43306 4.16667 8.83306 5.56667 8.83306 7.29167C8.83306 9.01667 7.43306 10.4167 5.70806 10.4167C3.98306 10.4167 2.58306 9.01667 2.58306 7.29167ZM37.9997 46.875C37.9997 48.6 36.5997 50 34.8747 50C33.1497 50 31.7497 48.6 31.7497 46.875C31.7497 45.15 33.1497 43.75 34.8747 43.75C36.5997 43.75 37.9997 45.15 37.9997 46.875Z" fill="#005A7A"/>
</g>
<defs>
<clipPath id="clip0_448_2669">
<rect width="50" height="50" fill="white" transform="translate(0.5)"/>
</clipPath>
</defs>
</svg>
