<svg width="24" height="21" viewBox="0 0 24 21" fill="none" xmlns="http://www.w3.org/2000/svg">
<g id="Property 1=&#240;&#159;&#166;&#134; icon &#34;wallet icon&#34;">
<path id="Vector" d="M23.152 4.91366L23.1541 4.23475C23.18 4.26717 23.2012 4.30315 23.217 4.34165C23.2391 4.39553 23.2504 4.45327 23.25 4.51152L23.25 4.51391L23.2029 19.6814C23.2029 19.6815 23.2029 19.6817 23.2029 19.6818C23.2023 19.783 23.1676 19.8804 23.1053 19.9589L23.1074 19.2846L23.152 4.91366ZM22.3574 20.0322H23.0317C22.9532 20.0943 22.8556 20.1287 22.7545 20.129C22.7543 20.129 22.7541 20.129 22.7538 20.129L3.52423 20.129C2.78846 20.129 2.08283 19.8367 1.56256 19.3165C1.0423 18.7962 0.75001 18.0906 0.75 17.3548V3.64526C0.75 3.64526 0.75 3.64525 0.75 3.64525C0.750013 2.90949 1.0423 2.20386 1.56256 1.6836C2.08283 1.16333 2.78845 0.871046 3.52422 0.871033C3.52422 0.871033 3.52422 0.871033 3.52423 0.871033H20.7575C20.8587 0.871219 20.9564 0.905613 21.0351 0.967801H20.3588H3.52422C2.81411 0.967801 2.13309 1.24989 1.63098 1.75201C1.12886 2.25413 0.846768 2.93515 0.846768 3.64525V17.3548C0.846768 18.0649 1.12886 18.7459 1.63097 19.248C2.13309 19.7502 2.81411 20.0322 3.52422 20.0322H22.3574ZM21.1088 1.7178V1.04153C21.1711 1.12026 21.2055 1.21807 21.2056 1.31945V3.31457V4.06457H21.9556L22.8025 4.06457L22.8046 4.06457C22.8628 4.0644 22.9205 4.07583 22.9743 4.09817C23.0128 4.11412 23.0486 4.1354 23.0809 4.16134H22.402H4.34273V4.06457H20.3588H21.1088V3.31457V1.7178Z" fill="white" stroke="white" stroke-width="1.5"/>
<path id="Vector_2" d="M19.512 11.7459V11.6491H19.6087V11.7459H19.512Z" fill="white" stroke="white" stroke-width="1.5"/>
</g>
</svg>
