<svg width="24" height="22" viewBox="0 0 24 22" fill="none" xmlns="http://www.w3.org/2000/svg">
<g id="&#240;&#159;&#166;&#134; icon &#34;wallet icon&#34;">
<path id="Vector" d="M23.152 5.41373L23.1541 4.73481C23.18 4.76723 23.2012 4.80321 23.217 4.84171C23.2391 4.89559 23.2504 4.95333 23.25 5.01158L23.25 5.01397L23.2029 20.1815C23.2029 20.1816 23.2029 20.1817 23.2029 20.1819C23.2023 20.283 23.1676 20.3805 23.1053 20.459L23.1074 19.7846L23.152 5.41373ZM22.3574 20.5323H23.0317C22.9532 20.5944 22.8556 20.6287 22.7545 20.6291C22.7543 20.6291 22.7541 20.6291 22.7538 20.6291L3.52423 20.6291C2.78846 20.6291 2.08283 20.3368 1.56256 19.8165C1.0423 19.2962 0.75001 18.5906 0.75 17.8549V4.14532C0.75 4.14532 0.75 4.14531 0.75 4.14531C0.750013 3.40955 1.0423 2.70392 1.56256 2.18366C2.08283 1.66339 2.78845 1.37111 3.52422 1.37109C3.52422 1.37109 3.52422 1.37109 3.52423 1.37109H20.7575C20.8587 1.37128 20.9564 1.40567 21.0351 1.46786H20.3588H3.52422C2.81411 1.46786 2.13309 1.74995 1.63098 2.25207C1.12886 2.75419 0.846768 3.43521 0.846768 4.14531V17.8549C0.846768 18.565 1.12886 19.246 1.63097 19.7481C2.13309 20.2502 2.81411 20.5323 3.52422 20.5323H22.3574ZM21.1088 2.21786V1.54159C21.1711 1.62032 21.2055 1.71813 21.2056 1.81951V3.81463V4.56463H21.9556L22.8025 4.56463L22.8046 4.56463C22.8628 4.56446 22.9205 4.57589 22.9743 4.59823C23.0128 4.61418 23.0486 4.63546 23.0809 4.6614H22.402H4.34273V4.56463H20.3588H21.1088V3.81463V2.21786Z" fill="black" stroke="black" stroke-width="1.5"/>
<path id="Vector_2" d="M19.5119 12.2462V12.1494H19.6087V12.2462H19.5119Z" fill="black" stroke="black" stroke-width="1.5"/>
</g>
</svg>
