<svg width="24" height="24" viewBox="0 0 24 24" fill="none" xmlns="http://www.w3.org/2000/svg">
<g id="teenyicons:pdf-outline">
<path id="Vector" d="M4.0001 10.4V9.6H3.2001V10.4H4.0001ZM10.4001 10.4V9.6H9.6001V10.4H10.4001ZM10.4001 16.8H9.6001V17.6H10.4001V16.8ZM21.6001 5.6H22.4001V5.2688L22.1665 5.0336L21.6001 5.6ZM16.8001 0.8L17.3665 0.2336L17.1313 0H16.8001V0.8ZM4.0001 11.2H5.6001V9.6H4.0001V11.2ZM4.8001 17.6V13.6H3.2001V17.6H4.8001ZM4.8001 13.6V10.4H3.2001V13.6H4.8001ZM5.6001 12.8H4.0001V14.4H5.6001V12.8ZM6.4001 12C6.4001 12.2122 6.31581 12.4157 6.16578 12.5657C6.01575 12.7157 5.81227 12.8 5.6001 12.8V14.4C6.23662 14.4 6.84707 14.1471 7.29715 13.6971C7.74724 13.247 8.0001 12.6365 8.0001 12H6.4001ZM5.6001 11.2C5.81227 11.2 6.01575 11.2843 6.16578 11.4343C6.31581 11.5843 6.4001 11.7878 6.4001 12H8.0001C8.0001 11.3635 7.74724 10.753 7.29715 10.3029C6.84707 9.85286 6.23662 9.6 5.6001 9.6V11.2ZM9.6001 10.4V16.8H11.2001V10.4H9.6001ZM10.4001 17.6H12.0001V16H10.4001V17.6ZM14.4001 15.2V12H12.8001V15.2H14.4001ZM12.0001 9.6H10.4001V11.2H12.0001V9.6ZM14.4001 12C14.4001 11.3635 14.1472 10.753 13.6972 10.3029C13.2471 9.85286 12.6366 9.6 12.0001 9.6V11.2C12.2123 11.2 12.4158 11.2843 12.5658 11.4343C12.7158 11.5843 12.8001 11.7878 12.8001 12H14.4001ZM12.0001 17.6C12.6366 17.6 13.2471 17.3471 13.6972 16.8971C14.1472 16.447 14.4001 15.8365 14.4001 15.2H12.8001C12.8001 15.4122 12.7158 15.6157 12.5658 15.7657C12.4158 15.9157 12.2123 16 12.0001 16V17.6ZM16.0001 9.6V17.6H17.6001V9.6H16.0001ZM16.8001 11.2H20.8001V9.6H16.8001V11.2ZM16.8001 14.4H19.2001V12.8H16.8001V14.4ZM3.2001 8V2.4H1.6001V8H3.2001ZM20.8001 5.6V8H22.4001V5.6H20.8001ZM4.0001 1.6H16.8001V0H4.0001V1.6ZM16.2337 1.3664L21.0337 6.1664L22.1665 5.0336L17.3665 0.2336L16.2337 1.3664ZM3.2001 2.4C3.2001 2.18783 3.28438 1.98434 3.43441 1.83431C3.58444 1.68429 3.78792 1.6 4.0001 1.6V0C3.36358 0 2.75313 0.252856 2.30304 0.702944C1.85295 1.15303 1.6001 1.76348 1.6001 2.4H3.2001ZM1.6001 19.2V21.6H3.2001V19.2H1.6001ZM4.0001 24H20.0001V22.4H4.0001V24ZM22.4001 21.6V19.2H20.8001V21.6H22.4001ZM20.0001 24C20.6366 24 21.2471 23.7471 21.6972 23.2971C22.1472 22.847 22.4001 22.2365 22.4001 21.6H20.8001C20.8001 21.8122 20.7158 22.0157 20.5658 22.1657C20.4158 22.3157 20.2123 22.4 20.0001 22.4V24ZM1.6001 21.6C1.6001 22.2365 1.85295 22.847 2.30304 23.2971C2.75313 23.7471 3.36358 24 4.0001 24V22.4C3.78792 22.4 3.58444 22.3157 3.43441 22.1657C3.28438 22.0157 3.2001 21.8122 3.2001 21.6H1.6001Z" fill="#005A7A"/>
</g>
</svg>
