<svg width="25" height="25" viewBox="0 0 25 25" fill="none" xmlns="http://www.w3.org/2000/svg">
<g id="mage:settings">
<g id="Group">
<path id="Vector" d="M12.6375 16.0459C13.0977 16.0459 13.5533 15.9553 13.9785 15.7792C14.4036 15.6031 14.7899 15.345 15.1153 15.0196C15.4407 14.6942 15.6988 14.3079 15.8749 13.8828C16.051 13.4576 16.1417 13.0019 16.1417 12.5418C16.1417 12.0816 16.051 11.6259 15.8749 11.2008C15.6988 10.7756 15.4407 10.3893 15.1153 10.0639C14.7899 9.73855 14.4036 9.48044 13.9785 9.30434C13.5533 9.12824 13.0977 9.0376 12.6375 9.0376C11.7081 9.0376 10.8168 9.40679 10.1597 10.0639C9.50252 10.7211 9.13333 11.6124 9.13333 12.5418C9.13333 13.4711 9.50252 14.3624 10.1597 15.0196C10.8168 15.6767 11.7081 16.0459 12.6375 16.0459Z" stroke="black" stroke-width="1.5" stroke-linecap="round" stroke-linejoin="round"/>
<path id="Vector_2" d="M21.8573 15.7228C21.4439 16.9094 20.8067 18.0056 19.9802 18.952L17.7677 18.4499C16.9287 19.2027 15.9317 19.7579 14.85 20.0749L14.2521 22.2405C13.6916 22.3412 13.1236 22.3931 12.5542 22.3957C11.8419 22.3955 11.1318 22.3151 10.4375 22.1562L9.80312 19.9207C8.8574 19.5728 7.9882 19.0447 7.24374 18.3655L5.05624 18.928C4.18767 17.915 3.53637 16.7343 3.1427 15.4593L4.75728 13.6655C4.60959 12.7482 4.63396 11.8114 4.82916 10.903L3.23645 9.24157C3.69818 7.93773 4.43215 6.74711 5.38957 5.74886L7.64999 6.31136C8.27224 5.81205 8.96568 5.40863 9.70728 5.11449L10.3052 2.90199C11.0435 2.70956 11.8027 2.60914 12.5656 2.60303C13.175 2.60303 13.7844 2.65928 14.3833 2.76969L14.9573 4.97074C15.8219 5.25094 16.6323 5.67907 17.349 6.23844L19.6219 5.65199C20.5396 6.57562 21.2631 7.67357 21.75 8.88115L20.2083 10.5551C20.5005 11.7023 20.5247 12.9013 20.2792 14.0593L21.8573 15.7228Z" stroke="black" stroke-width="1.5" stroke-linecap="round" stroke-linejoin="round"/>
</g>
</g>
</svg>
