<svg width="21" height="23" viewBox="0 0 21 23" fill="none" xmlns="http://www.w3.org/2000/svg">
<g id="Group">
<path id="Vector" d="M10.6377 15.0459C11.0979 15.0459 11.5536 14.9552 11.9787 14.7791C12.4038 14.603 12.7901 14.3449 13.1155 14.0195C13.4409 13.6941 13.699 13.3078 13.8751 12.8827C14.0512 12.4575 14.1419 12.0019 14.1419 11.5417C14.1419 11.0815 14.0512 10.6259 13.8751 10.2007C13.699 9.77557 13.4409 9.38928 13.1155 9.06388C12.7901 8.73849 12.4038 8.48038 11.9787 8.30428C11.5536 8.12817 11.0979 8.03754 10.6377 8.03754C9.70835 8.03754 8.81705 8.40673 8.15989 9.06388C7.50273 9.72104 7.13354 10.6123 7.13354 11.5417C7.13354 12.4711 7.50273 13.3624 8.15989 14.0195C8.81705 14.6767 9.70835 15.0459 10.6377 15.0459Z" stroke="white" stroke-width="1.5" stroke-linecap="round" stroke-linejoin="round"/>
<path id="Vector_2" d="M19.8574 14.7229C19.444 15.9095 18.8068 17.0057 17.9803 17.9521L15.7678 17.45C14.9288 18.2028 13.9318 18.758 12.8501 19.075L12.2522 21.2406C11.6918 21.3413 11.1237 21.3933 10.5543 21.3959C9.84197 21.3956 9.13195 21.3153 8.43761 21.1563L7.80324 18.9209C6.85752 18.5729 5.98832 18.0448 5.24386 17.3656L3.05636 17.9281C2.18779 16.9151 1.53649 15.7344 1.14282 14.4594L2.75741 12.6656C2.60971 11.7483 2.63408 10.8115 2.82928 9.90315L1.23657 8.24169C1.6983 6.93785 2.43227 5.74724 3.3897 4.74898L5.65011 5.31148C6.27236 4.81217 6.9658 4.40875 7.70741 4.11461L8.30532 1.90211C9.04359 1.70968 9.80282 1.60926 10.5657 1.60315C11.1751 1.60315 11.7845 1.6594 12.3834 1.76982L12.9574 3.97086C13.822 4.25107 14.6324 4.67919 15.3491 5.23857L17.622 4.65211C18.5397 5.57574 19.2633 6.67369 19.7501 7.88127L18.2084 9.55523C18.5006 10.7024 18.5249 11.9014 18.2793 13.0594L19.8574 14.7229Z" stroke="white" stroke-width="1.5" stroke-linecap="round" stroke-linejoin="round"/>
</g>
</svg>
