<svg width="20" height="21" viewBox="0 0 20 21" fill="none" xmlns="http://www.w3.org/2000/svg">
<g id="iconoir:submit-document">
<g id="Group">
<path id="Vector" d="M16.6667 11.3332V5.29067C16.6668 5.22489 16.6538 5.15975 16.6287 5.09897C16.6035 5.0382 16.5666 4.98299 16.52 4.9365L13.8967 2.31317C13.803 2.21938 13.6759 2.16662 13.5434 2.1665H3.83337C3.70077 2.1665 3.57359 2.21918 3.47982 2.31295C3.38605 2.40672 3.33337 2.5339 3.33337 2.6665V18.3332C3.33337 18.4658 3.38605 18.593 3.47982 18.6867C3.57359 18.7805 3.70077 18.8332 3.83337 18.8332H11.6667" stroke="white" stroke-width="1.5" stroke-linecap="round" stroke-linejoin="round"/>
<path id="Vector_2" d="M13.3334 2.1665V4.99984C13.3334 5.13245 13.3861 5.25962 13.4798 5.35339C13.5736 5.44716 13.7008 5.49984 13.8334 5.49984H16.6667M13.3334 16.3332H18.3334M18.3334 16.3332L15.8334 13.8332M18.3334 16.3332L15.8334 18.8332" stroke="white" stroke-width="1.5" stroke-linecap="round" stroke-linejoin="round"/>
</g>
</g>
</svg>
